<svg width="226" height="121" viewBox="0 0 226 121" fill="none" xmlns="http://www.w3.org/2000/svg">
<path d="M27.9036 14.4968C27.9036 16.4683 27.5688 18.2973 26.8992 19.9836C26.242 21.67 25.3058 23.1269 24.0907 24.3545C22.8879 25.5821 21.4372 26.5492 19.7384 27.256C18.0397 27.9504 16.1549 28.2976 14.0842 28.2976C12.0134 28.2976 10.1287 27.9504 8.42993 27.256C6.73118 26.5492 5.27422 25.5821 4.05906 24.3545C2.84389 23.1269 1.90152 21.67 1.23194 19.9836C0.574755 18.2973 0.246164 16.4683 0.246164 14.4968C0.246164 12.5252 0.574755 10.7025 1.23194 9.02854C1.90152 7.34219 2.84389 5.88523 4.05906 4.65767C5.27422 3.4301 6.73118 2.46913 8.42993 1.77475C10.1287 1.06797 12.0134 0.714581 14.0842 0.714581C16.1549 0.714581 18.0397 1.06797 19.7384 1.77475C21.4372 2.46913 22.8879 3.4363 24.0907 4.67627C25.3058 5.90383 26.242 7.36079 26.8992 9.04714C27.5688 10.7211 27.9036 12.5376 27.9036 14.4968ZM22.1935 14.4968C22.1935 13.0832 22.0075 11.8185 21.6356 10.7025C21.2636 9.57413 20.7242 8.61936 20.0174 7.83818C19.323 7.0446 18.4736 6.44322 17.4693 6.03403C16.4773 5.61244 15.3489 5.40165 14.0842 5.40165C12.8194 5.40165 11.6848 5.61244 10.6805 6.03403C9.67609 6.44322 8.82052 7.0446 8.11374 7.83818C7.41936 8.61936 6.88617 9.57413 6.51418 10.7025C6.1422 11.8185 5.9562 13.0832 5.9562 14.4968C5.9562 15.9227 6.1422 17.1999 6.51418 18.3283C6.88617 19.4442 7.41936 20.3928 8.11374 21.174C8.82052 21.9552 9.67609 22.5566 10.6805 22.9781C11.6848 23.3873 12.8194 23.5919 14.0842 23.5919C15.3489 23.5919 16.4773 23.3873 17.4693 22.9781C18.4736 22.5566 19.323 21.9552 20.0174 21.174C20.7242 20.3928 21.2636 19.4442 21.6356 18.3283C22.0075 17.1999 22.1935 15.9227 22.1935 14.4968ZM40.4228 13.79C41.3279 13.79 42.1091 13.6784 42.7663 13.4552C43.4235 13.2196 43.9629 12.9034 44.3844 12.5066C44.806 12.0975 45.116 11.6201 45.3144 11.0745C45.5128 10.5289 45.612 9.93372 45.612 9.28894C45.612 8.01177 45.1842 7.0198 44.3286 6.31302C43.4855 5.60624 42.1959 5.25285 40.46 5.25285H37.5584V13.79H40.4228ZM53.4982 28H48.4577C47.5154 28 46.8334 27.6404 46.4118 26.9212L41.2783 18.6445C41.0675 18.3221 40.8319 18.0865 40.5716 17.9377C40.3236 17.7889 39.9516 17.7145 39.4556 17.7145H37.5584V28H31.9786V1.01217H40.46C42.3447 1.01217 43.9567 1.21057 45.2958 1.60736C46.635 1.99175 47.7323 2.53113 48.5879 3.22551C49.4435 3.91989 50.0697 4.75067 50.4665 5.71784C50.8633 6.67261 51.0617 7.72658 51.0617 8.87975C51.0617 9.77252 50.9315 10.6219 50.6711 11.4279C50.4231 12.2215 50.0573 12.9468 49.5737 13.604C49.0901 14.2612 48.4949 14.844 47.7881 15.3524C47.0814 15.8607 46.2754 16.2699 45.3702 16.5799C45.7298 16.7783 46.0646 17.0201 46.3746 17.3053C46.6846 17.5781 46.9636 17.9067 47.2116 18.2911L53.4982 28ZM59.8479 14.4968C59.8479 15.9227 60.0339 17.1999 60.4058 18.3283C60.7778 19.4442 61.311 20.3928 62.0054 21.174C62.7122 21.9552 63.5678 22.5566 64.5721 22.9781C65.5765 23.3873 66.7111 23.5919 67.9758 23.5919C69.2406 23.5919 70.369 23.3873 71.3609 22.9781C72.3653 22.5566 73.2147 21.9552 73.9091 21.174C74.6158 20.3928 75.1552 19.4442 75.5272 18.3283C75.8992 17.1999 76.0852 15.9227 76.0852 14.4968C76.0852 13.0832 75.8992 11.8185 75.5272 10.7025C75.1552 9.57413 74.6158 8.61936 73.9091 7.83818C73.2147 7.0446 72.3653 6.44322 71.3609 6.03403C70.369 5.61244 69.2406 5.40165 67.9758 5.40165C66.7111 5.40165 65.5765 5.61244 64.5721 6.03403C63.5678 6.44322 62.7122 7.0446 62.0054 7.83818C61.311 8.61936 60.7778 9.57413 60.4058 10.7025C60.0339 11.8185 59.8479 13.0832 59.8479 14.4968ZM83.246 33.1707H78.6519C77.9823 33.1707 77.381 33.0839 76.8478 32.9103C76.327 32.7367 75.8434 32.4143 75.397 31.9431L71.7329 27.8698C70.5302 28.155 69.2778 28.2976 67.9758 28.2976C65.9051 28.2976 64.0203 27.9504 62.3216 27.256C60.6228 26.5492 59.1659 25.5821 57.9507 24.3545C56.7356 23.1269 55.7932 21.67 55.1236 19.9836C54.4664 18.2973 54.1378 16.4683 54.1378 14.4968C54.1378 12.5252 54.4664 10.7025 55.1236 9.02854C55.7932 7.34219 56.7356 5.88523 57.9507 4.65767C59.1659 3.4301 60.6228 2.46913 62.3216 1.77475C64.0203 1.06797 65.9051 0.714581 67.9758 0.714581C70.0466 0.714581 71.9313 1.06797 73.6301 1.77475C75.3288 2.46913 76.7796 3.4363 77.9823 4.67627C79.1975 5.90383 80.1337 7.36079 80.7909 9.04714C81.4604 10.7211 81.7952 12.5376 81.7952 14.4968C81.7952 15.6872 81.6712 16.8279 81.4232 17.9191C81.1877 18.9979 80.8405 20.0146 80.3817 20.9694C79.9229 21.9118 79.3587 22.7859 78.6891 23.5919C78.0195 24.3979 77.2632 25.1047 76.42 25.7123L83.246 33.1707ZM96.9361 23.5361C97.8412 23.5361 98.6534 23.3873 99.3726 23.0897C100.092 22.7797 100.699 22.3458 101.195 21.7878C101.691 21.2298 102.07 20.554 102.33 19.7604C102.59 18.9669 102.721 18.0741 102.721 17.0821V1.01217H108.3V17.0821C108.3 18.7189 108.034 20.2254 107.501 21.6018C106.98 22.9657 106.23 24.1437 105.25 25.1357C104.27 26.1277 103.08 26.9026 101.679 27.4606C100.278 28.0186 98.6968 28.2976 96.9361 28.2976C95.1753 28.2976 93.5882 28.0186 92.1746 27.4606C90.7734 26.9026 89.5831 26.1277 88.6035 25.1357C87.6239 24.1437 86.8676 22.9657 86.3344 21.6018C85.8136 20.2254 85.5532 18.7189 85.5532 17.0821V1.01217H91.133V17.0821C91.133 18.0741 91.2632 18.9669 91.5236 19.7604C91.784 20.554 92.1622 21.2298 92.6582 21.7878C93.1542 22.3458 93.7618 22.7797 94.4809 23.0897C95.2001 23.3873 96.0185 23.5361 96.9361 23.5361ZM119.223 5.38305V12.3206H128.225V16.5427H119.223V23.6291H130.791V28H113.606V1.01217H130.791V5.38305H119.223ZM149.585 6.18282C149.411 6.46802 149.232 6.67881 149.046 6.81521C148.872 6.9392 148.643 7.0012 148.357 7.0012C148.085 7.0012 147.787 6.9082 147.465 6.72221C147.155 6.52381 146.789 6.31302 146.367 6.08983C145.946 5.86663 145.462 5.66204 144.917 5.47604C144.371 5.27765 143.732 5.17845 143.001 5.17845C141.711 5.17845 140.744 5.46984 140.099 6.05263C139.455 6.62301 139.132 7.37319 139.132 8.30316C139.132 8.89835 139.306 9.39433 139.653 9.79112C140.013 10.1755 140.478 10.5103 141.048 10.7955C141.631 11.0807 142.288 11.3349 143.019 11.5581C143.751 11.7813 144.501 12.0293 145.27 12.302C146.039 12.5624 146.789 12.8724 147.521 13.232C148.252 13.5916 148.903 14.0442 149.473 14.5898C150.056 15.1354 150.521 15.8049 150.868 16.5985C151.228 17.3797 151.408 18.3345 151.408 19.4628C151.408 20.6904 151.191 21.8436 150.757 22.9223C150.335 23.9887 149.721 24.9249 148.915 25.7309C148.11 26.5244 147.111 27.1506 145.921 27.6094C144.743 28.0682 143.404 28.2976 141.903 28.2976C141.048 28.2976 140.192 28.2108 139.337 28.0372C138.494 27.8636 137.675 27.6218 136.882 27.3118C136.1 27.0018 135.363 26.6298 134.668 26.1959C133.974 25.7619 133.366 25.2783 132.846 24.7451L134.482 22.104C134.619 21.9056 134.798 21.7444 135.022 21.6204C135.245 21.484 135.48 21.4158 135.728 21.4158C136.063 21.4158 136.417 21.5398 136.789 21.7878C137.161 22.0358 137.588 22.3086 138.072 22.6062C138.556 22.9037 139.114 23.1765 139.746 23.4245C140.391 23.6725 141.16 23.7965 142.052 23.7965C143.354 23.7965 144.359 23.4989 145.065 22.9037C145.785 22.3086 146.144 21.422 146.144 20.244C146.144 19.562 145.964 19.0103 145.605 18.5887C145.258 18.1671 144.799 17.8137 144.228 17.5285C143.658 17.2433 143.007 17.0015 142.275 16.8031C141.544 16.5923 140.794 16.3629 140.025 16.1149C139.256 15.8669 138.506 15.5694 137.774 15.2222C137.043 14.875 136.392 14.4162 135.821 13.8458C135.251 13.2754 134.786 12.5686 134.426 11.7255C134.079 10.8823 133.906 9.83452 133.906 8.58216C133.906 7.57779 134.104 6.60441 134.501 5.66204C134.898 4.71967 135.48 3.88269 136.249 3.15111C137.018 2.41953 137.96 1.83055 139.076 1.38416C140.205 0.937774 141.494 0.714581 142.945 0.714581C144.569 0.714581 146.07 0.968773 147.446 1.47716C148.835 1.97315 150.007 2.66753 150.961 3.5603L149.585 6.18282ZM174.556 5.51324H166.67V28H161.071V5.51324H153.185V1.01217H174.556V5.51324ZM186.349 13.79C187.254 13.79 188.035 13.6784 188.692 13.4552C189.349 13.2196 189.889 12.9034 190.31 12.5066C190.732 12.0975 191.042 11.6201 191.24 11.0745C191.439 10.5289 191.538 9.93372 191.538 9.28894C191.538 8.01177 191.11 7.0198 190.255 6.31302C189.411 5.60624 188.122 5.25285 186.386 5.25285H183.484V13.79H186.349ZM199.424 28H194.384C193.441 28 192.759 27.6404 192.338 26.9212L187.204 18.6445C186.993 18.3221 186.758 18.0865 186.497 17.9377C186.249 17.7889 185.877 17.7145 185.381 17.7145H183.484V28H177.904V1.01217H186.386C188.271 1.01217 189.883 1.21057 191.222 1.60736C192.561 1.99175 193.658 2.53113 194.514 3.22551C195.369 3.91989 195.996 4.75067 196.392 5.71784C196.789 6.67261 196.988 7.72658 196.988 8.87975C196.988 9.77252 196.857 10.6219 196.597 11.4279C196.349 12.2215 195.983 12.9468 195.5 13.604C195.016 14.2612 194.421 14.844 193.714 15.3524C193.007 15.8607 192.201 16.2699 191.296 16.5799C191.656 16.7783 191.99 17.0201 192.3 17.3053C192.61 17.5781 192.889 17.9067 193.137 18.2911L199.424 28ZM216.309 17.7517L213.389 9.49353C213.215 9.05954 213.029 8.55116 212.831 7.96837C212.645 7.38559 212.465 6.75321 212.292 6.07123C212.118 6.76561 211.932 7.41039 211.734 8.00557C211.548 8.58836 211.368 9.09674 211.194 9.53073L208.293 17.7517H216.309ZM225.683 28H221.35C220.866 28 220.469 27.8884 220.159 27.6652C219.862 27.4296 219.638 27.132 219.49 26.7724L217.667 21.6204H206.916L205.094 26.7724C204.97 27.0824 204.753 27.3676 204.443 27.628C204.133 27.876 203.742 28 203.271 28H198.9L209.446 1.01217H215.156L225.683 28ZM6.15958 41.48V55.1337H20.9606V57.0842H6.15958V72H3.796V39.5295H23.2554V41.48H6.15958ZM30.9219 49.1674V72H28.7419V49.1674H30.9219ZM31.8628 41.2964C31.8628 41.5718 31.8016 41.8319 31.6792 42.0766C31.5721 42.3061 31.4268 42.5126 31.2432 42.6962C31.0596 42.8798 30.8454 43.0251 30.6007 43.1322C30.3559 43.2393 30.0958 43.2928 29.8205 43.2928C29.5451 43.2928 29.285 43.2393 29.0403 43.1322C28.7955 43.0251 28.5813 42.8798 28.3977 42.6962C28.2141 42.5126 28.0688 42.3061 27.9617 42.0766C27.8546 41.8319 27.8011 41.5718 27.8011 41.2964C27.8011 41.0211 27.8546 40.761 27.9617 40.5162C28.0688 40.2561 28.2141 40.0343 28.3977 39.8507C28.5813 39.6672 28.7955 39.5218 29.0403 39.4147C29.285 39.3077 29.5451 39.2541 29.8205 39.2541C30.0958 39.2541 30.3559 39.3077 30.6007 39.4147C30.8454 39.5218 31.0596 39.6672 31.2432 39.8507C31.4268 40.0343 31.5721 40.2561 31.6792 40.5162C31.8016 40.761 31.8628 41.0211 31.8628 41.2964ZM41.1177 38.6116V72H38.9148V38.6116H41.1177ZM61.6191 60.9623C59.4467 61.0388 57.5727 61.2147 55.997 61.4901C54.4365 61.7502 53.1438 62.1097 52.1189 62.5686C51.1092 63.0276 50.3596 63.5783 49.87 64.2208C49.3805 64.8481 49.1357 65.5671 49.1357 66.3779C49.1357 67.1428 49.2581 67.8083 49.5029 68.3743C49.7629 68.9251 50.0995 69.384 50.5125 69.7512C50.9409 70.103 51.4304 70.3631 51.9812 70.5314C52.5319 70.6996 53.1056 70.7838 53.7022 70.7838C54.5895 70.7838 55.4003 70.692 56.1346 70.5084C56.8843 70.3095 57.5727 70.0418 58.1999 69.7053C58.8424 69.3534 59.4391 68.9404 59.9898 68.4661C60.5405 67.9919 61.0836 67.4794 61.6191 66.9286V60.9623ZM48.1949 52.4029C49.3881 51.2097 50.6426 50.3071 51.9582 49.6952C53.2739 49.0832 54.7654 48.7773 56.433 48.7773C57.6568 48.7773 58.7277 48.9761 59.6456 49.3739C60.5635 49.7564 61.3207 50.3147 61.9174 51.0491C62.5293 51.7681 62.9883 52.6477 63.2942 53.688C63.6002 54.713 63.7532 55.8604 63.7532 57.1301V72H62.8812C62.4222 72 62.1392 71.7858 62.0321 71.3575L61.7109 68.4202C61.0836 69.0321 60.4564 69.5829 59.8292 70.0724C59.2172 70.562 58.5747 70.975 57.9016 71.3116C57.2285 71.6481 56.5018 71.9082 55.7216 72.0918C54.9414 72.2754 54.0847 72.3672 53.1515 72.3672C52.3713 72.3672 51.614 72.2524 50.8797 72.0229C50.1454 71.7935 49.4876 71.4416 48.9062 70.9674C48.3402 70.4931 47.8812 69.8888 47.5294 69.1545C47.1928 68.4049 47.0245 67.51 47.0245 66.4697C47.0245 65.5059 47.2999 64.6109 47.8506 63.7848C48.4014 62.9587 49.2657 62.2397 50.4437 61.6278C51.6217 61.0159 53.1285 60.5263 54.9643 60.1592C56.8154 59.792 59.0337 59.5778 61.6191 59.5166V57.1301C61.6191 55.0189 61.1601 53.3973 60.2422 52.2653C59.3396 51.1179 57.9934 50.5442 56.2035 50.5442C55.102 50.5442 54.1612 50.6972 53.381 51.0032C52.616 51.3091 51.9659 51.6457 51.4304 52.0128C50.895 52.38 50.459 52.7166 50.1224 53.0225C49.7859 53.3285 49.5029 53.4815 49.2734 53.4815C49.1051 53.4815 48.9674 53.4432 48.8603 53.3667C48.7532 53.2902 48.6614 53.1908 48.585 53.0684L48.1949 52.4029ZM73.1558 54.6747C73.5077 53.7415 73.9055 52.9154 74.3491 52.1964C74.8081 51.4621 75.3282 50.8425 75.9095 50.3377C76.5062 49.8328 77.164 49.4504 77.883 49.1903C78.6173 48.9149 79.4281 48.7773 80.3154 48.7773C80.7897 48.7773 81.2563 48.8232 81.7152 48.9149C82.1742 48.9914 82.5796 49.1368 82.9314 49.3509L82.7478 50.8655C82.6714 51.1102 82.526 51.2326 82.3118 51.2326C82.1283 51.2326 81.8452 51.1791 81.4628 51.072C81.0956 50.9649 80.6061 50.9114 79.9942 50.9114C79.1069 50.9114 78.319 51.0491 77.6306 51.3244C76.9575 51.5845 76.3455 51.9822 75.7948 52.5177C75.2594 53.0531 74.7851 53.7186 74.3721 54.5141C73.9743 55.2943 73.6071 56.1969 73.2706 57.2219V72H71.0676V49.1674H72.238C72.498 49.1674 72.6816 49.2209 72.7887 49.328C72.8958 49.4351 72.9646 49.6187 72.9952 49.8787L73.1558 54.6747ZM87.2921 72V49.1674H88.5084C88.8908 49.1674 89.1126 49.3586 89.1738 49.7411L89.3804 53.0455C90.2677 51.7757 91.285 50.7507 92.4324 49.9705C93.5797 49.1903 94.8724 48.8002 96.3105 48.8002C97.978 48.8002 99.3089 49.2821 100.303 50.2459C101.313 51.2097 101.994 52.5483 102.346 54.2617C102.621 53.3285 103.003 52.5177 103.493 51.8293C103.998 51.1408 104.572 50.5748 105.214 50.1312C105.857 49.6722 106.553 49.3356 107.302 49.1215C108.067 48.9073 108.847 48.8002 109.643 48.8002C110.775 48.8002 111.792 48.9914 112.695 49.3739C113.597 49.7411 114.362 50.2918 114.99 51.0261C115.617 51.7604 116.099 52.663 116.435 53.7339C116.772 54.8048 116.94 56.0286 116.94 57.4055V72H114.76V57.4055C114.76 55.1719 114.278 53.4738 113.314 52.3112C112.351 51.1332 110.974 50.5442 109.184 50.5442C108.388 50.5442 107.624 50.6895 106.889 50.9802C106.17 51.2709 105.528 51.7069 104.962 52.2882C104.411 52.8542 103.967 53.5656 103.631 54.4223C103.309 55.279 103.149 56.2734 103.149 57.4055V72H100.946V57.4055C100.946 55.1872 100.502 53.4891 99.6149 52.3112C98.7429 51.1332 97.4578 50.5442 95.7597 50.5442C94.5206 50.5442 93.3732 50.9114 92.3176 51.6457C91.262 52.38 90.3212 53.3973 89.4951 54.6977V72H87.2921ZM133.264 48.8002C134.901 48.8002 136.362 49.0832 137.647 49.6493C138.948 50.2 140.041 50.9879 140.929 52.0128C141.816 53.0378 142.489 54.277 142.948 55.7303C143.422 57.1684 143.659 58.7823 143.659 60.5722C143.659 62.3621 143.422 63.9761 142.948 65.4141C142.489 66.8521 141.816 68.0836 140.929 69.1086C140.041 70.1336 138.948 70.9215 137.647 71.4722C136.362 72.0229 134.901 72.2983 133.264 72.2983C131.627 72.2983 130.159 72.0229 128.858 71.4722C127.573 70.9215 126.48 70.1336 125.577 69.1086C124.69 68.0836 124.009 66.8521 123.535 65.4141C123.076 63.9761 122.846 62.3621 122.846 60.5722C122.846 58.7823 123.076 57.1684 123.535 55.7303C124.009 54.277 124.69 53.0378 125.577 52.0128C126.48 50.9879 127.573 50.2 128.858 49.6493C130.159 49.0832 131.627 48.8002 133.264 48.8002ZM133.264 70.5773C134.626 70.5773 135.811 70.3478 136.821 69.8888C137.846 69.4146 138.695 68.7415 139.368 67.8695C140.057 66.9975 140.569 65.9495 140.906 64.7257C141.242 63.4865 141.411 62.102 141.411 60.5722C141.411 59.0577 141.242 57.6808 140.906 56.4417C140.569 55.2025 140.057 54.1469 139.368 53.2749C138.695 52.3877 137.846 51.7069 136.821 51.2326C135.811 50.7584 134.626 50.5213 133.264 50.5213C131.903 50.5213 130.71 50.7584 129.685 51.2326C128.675 51.7069 127.826 52.3877 127.137 53.2749C126.464 54.1469 125.952 55.2025 125.6 56.4417C125.263 57.6808 125.095 59.0577 125.095 60.5722C125.095 62.102 125.263 63.4865 125.6 64.7257C125.952 65.9495 126.464 66.9975 127.137 67.8695C127.826 68.7415 128.675 69.4146 129.685 69.8888C130.71 70.3478 131.903 70.5773 133.264 70.5773ZM139.277 45.1745H137.785C137.555 45.1745 137.334 45.0674 137.119 44.8533L133.586 41.044C133.54 40.9981 133.494 40.9522 133.448 40.9063C133.417 40.8604 133.379 40.8069 133.333 40.7457C133.287 40.8069 133.241 40.8604 133.195 40.9063C133.165 40.9522 133.127 40.9981 133.081 41.044L129.547 44.8533C129.455 44.9451 129.348 45.0215 129.226 45.0827C129.119 45.1439 129.004 45.1745 128.881 45.1745H127.344L132.323 39.5295H134.274L139.277 45.1745ZM151.903 53.1602C152.959 51.8446 154.175 50.789 155.552 49.9935C156.944 49.198 158.489 48.8002 160.187 48.8002C161.441 48.8002 162.543 48.9991 163.491 49.3968C164.455 49.7946 165.251 50.3683 165.878 51.1179C166.505 51.8675 166.979 52.7701 167.301 53.8257C167.622 54.8813 167.783 56.0745 167.783 57.4055V72H165.58V57.4055C165.58 55.2637 165.09 53.5886 164.111 52.38C163.132 51.1561 161.64 50.5442 159.636 50.5442C158.152 50.5442 156.76 50.9267 155.46 51.6916C154.175 52.4412 153.027 53.4891 152.018 54.8354V72H149.815V49.1674H151.031C151.413 49.1674 151.635 49.3586 151.696 49.7411L151.903 53.1602ZM177.48 49.1674V72H175.3V49.1674H177.48ZM178.421 41.2964C178.421 41.5718 178.36 41.8319 178.238 42.0766C178.13 42.3061 177.985 42.5126 177.802 42.6962C177.618 42.8798 177.404 43.0251 177.159 43.1322C176.914 43.2393 176.654 43.2928 176.379 43.2928C176.103 43.2928 175.843 43.2393 175.599 43.1322C175.354 43.0251 175.14 42.8798 174.956 42.6962C174.773 42.5126 174.627 42.3061 174.52 42.0766C174.413 41.8319 174.359 41.5718 174.359 41.2964C174.359 41.0211 174.413 40.761 174.52 40.5162C174.627 40.2561 174.773 40.0343 174.956 39.8507C175.14 39.6672 175.354 39.5218 175.599 39.4147C175.843 39.3077 176.103 39.2541 176.379 39.2541C176.654 39.2541 176.914 39.3077 177.159 39.4147C177.404 39.5218 177.618 39.6672 177.802 39.8507C177.985 40.0343 178.13 40.2561 178.238 40.5162C178.36 40.761 178.421 41.0211 178.421 41.2964ZM200.618 52.2194C200.542 52.2959 200.465 52.3647 200.389 52.4259C200.328 52.4718 200.236 52.4947 200.114 52.4947C199.961 52.4947 199.754 52.3953 199.494 52.1964C199.234 51.9822 198.882 51.7528 198.438 51.508C197.995 51.2632 197.436 51.0414 196.763 50.8425C196.105 50.6284 195.302 50.5213 194.354 50.5213C193.038 50.5213 191.868 50.7584 190.843 51.2326C189.833 51.6916 188.976 52.3571 188.273 53.2291C187.569 54.1011 187.034 55.1566 186.666 56.3958C186.315 57.6349 186.139 59.0271 186.139 60.5722C186.139 62.1785 186.322 63.6013 186.689 64.8404C187.072 66.0796 187.607 67.1275 188.296 67.9842C188.984 68.8256 189.818 69.4681 190.797 69.9118C191.776 70.3554 192.862 70.5773 194.055 70.5773C195.157 70.5773 196.075 70.4472 196.809 70.1872C197.559 69.9271 198.171 69.6441 198.645 69.3381C199.135 69.0321 199.517 68.7491 199.792 68.4891C200.068 68.229 200.297 68.0989 200.481 68.0989C200.664 68.0989 200.817 68.1754 200.94 68.3284L201.513 69.0627C201.162 69.5217 200.718 69.95 200.182 70.3478C199.647 70.7455 199.043 71.0898 198.37 71.3804C197.696 71.6711 196.962 71.8929 196.167 72.0459C195.386 72.2142 194.568 72.2983 193.711 72.2983C192.258 72.2983 190.927 72.0382 189.718 71.5181C188.525 70.9827 187.493 70.2178 186.621 69.2234C185.764 68.2137 185.091 66.9822 184.601 65.5288C184.127 64.0755 183.89 62.4233 183.89 60.5722C183.89 58.8282 184.119 57.2372 184.578 55.7992C185.037 54.3611 185.71 53.122 186.598 52.0817C187.485 51.0414 188.563 50.2382 189.833 49.6722C191.118 49.0909 192.587 48.8002 194.239 48.8002C195.723 48.8002 197.039 49.0373 198.186 49.5116C199.333 49.9858 200.335 50.6284 201.192 51.4392L200.618 52.2194ZM219.696 60.9623C217.524 61.0388 215.65 61.2147 214.074 61.4901C212.513 61.7502 211.221 62.1097 210.196 62.5686C209.186 63.0276 208.436 63.5783 207.947 64.2208C207.457 64.8481 207.213 65.5671 207.213 66.3779C207.213 67.1428 207.335 67.8083 207.58 68.3743C207.84 68.9251 208.176 69.384 208.589 69.7512C209.018 70.103 209.507 70.3631 210.058 70.5314C210.609 70.6996 211.182 70.7838 211.779 70.7838C212.666 70.7838 213.477 70.692 214.212 70.5084C214.961 70.3095 215.65 70.0418 216.277 69.7053C216.919 69.3534 217.516 68.9404 218.067 68.4661C218.617 67.9919 219.161 67.4794 219.696 66.9286V60.9623ZM206.272 52.4029C207.465 51.2097 208.719 50.3071 210.035 49.6952C211.351 49.0832 212.842 48.7773 214.51 48.7773C215.734 48.7773 216.805 48.9761 217.722 49.3739C218.64 49.7564 219.398 50.3147 219.994 51.0491C220.606 51.7681 221.065 52.6477 221.371 53.688C221.677 54.713 221.83 55.8604 221.83 57.1301V72H220.958C220.499 72 220.216 71.7858 220.109 71.3575L219.788 68.4202C219.161 69.0321 218.533 69.5829 217.906 70.0724C217.294 70.562 216.652 70.975 215.978 71.3116C215.305 71.6481 214.579 71.9082 213.798 72.0918C213.018 72.2754 212.162 72.3672 211.228 72.3672C210.448 72.3672 209.691 72.2524 208.957 72.0229C208.222 71.7935 207.564 71.4416 206.983 70.9674C206.417 70.4931 205.958 69.8888 205.606 69.1545C205.27 68.4049 205.101 67.51 205.101 66.4697C205.101 65.5059 205.377 64.6109 205.928 63.7848C206.478 62.9587 207.343 62.2397 208.521 61.6278C209.699 61.0159 211.205 60.5263 213.041 60.1592C214.892 59.792 217.111 59.5778 219.696 59.5166V57.1301C219.696 55.0189 219.237 53.3973 218.319 52.2653C217.417 51.1179 216.07 50.5442 214.28 50.5442C213.179 50.5442 212.238 50.6972 211.458 51.0032C210.693 51.3091 210.043 51.6457 209.507 52.0128C208.972 52.38 208.536 52.7166 208.199 53.0225C207.863 53.3285 207.58 53.4815 207.35 53.4815C207.182 53.4815 207.044 53.4432 206.937 53.3667C206.83 53.2902 206.738 53.1908 206.662 53.0684L206.272 52.4029ZM30.9533 104.034C30.9533 106.365 30.5574 108.513 29.7657 110.478C28.9887 112.428 27.8818 114.106 26.4451 115.514C25.023 116.921 23.3076 118.021 21.2991 118.812C19.2906 119.604 17.0621 120 14.6138 120H2.34267V88.0907H14.6138C17.0621 88.0907 19.2906 88.4866 21.2991 89.2783C23.3076 90.0699 25.023 91.1768 26.4451 92.5989C27.8818 94.0064 28.9887 95.685 29.7657 97.6349C30.5574 99.5848 30.9533 101.718 30.9533 104.034ZM24.18 104.034C24.18 102.363 23.96 100.86 23.5202 99.5262C23.0804 98.192 22.45 97.0631 21.629 96.1395C20.808 95.2159 19.8037 94.5048 18.6162 94.0064C17.4433 93.5079 16.1092 93.2587 14.6138 93.2587H8.98402V114.832H14.6138C16.1092 114.832 17.4433 114.59 18.6162 114.106C19.8037 113.608 20.808 112.897 21.629 111.973C22.45 111.035 23.0804 109.899 23.5202 108.565C23.96 107.23 24.18 105.72 24.18 104.034ZM42.4433 93.2587V101.461H53.0871V106.453H42.4433V114.832H56.1219V120H35.802V88.0907H56.1219V93.2587H42.4433ZM97.7485 88.0907L84.9056 120H78.924L66.0811 88.0907H71.403C71.9748 88.0907 72.4366 88.23 72.7885 88.5086C73.155 88.7725 73.4262 89.117 73.6021 89.5421L80.5074 107.927C80.7713 108.616 81.0279 109.371 81.2771 110.192C81.541 110.998 81.7829 111.849 82.0028 112.743C82.1934 111.849 82.3986 110.998 82.6186 110.192C82.8531 109.371 83.1024 108.616 83.3663 107.927L90.2275 89.5421C90.3741 89.1756 90.6307 88.8458 90.9972 88.5525C91.3784 88.2447 91.8475 88.0907 92.4046 88.0907H97.7485ZM107.343 120H100.702V88.0907H107.343V120ZM144.849 104.034C144.849 106.365 144.453 108.528 143.661 110.522C142.884 112.516 141.777 114.238 140.34 115.69C138.918 117.141 137.203 118.285 135.194 119.12C133.186 119.941 130.957 120.352 128.509 120.352C126.061 120.352 123.832 119.941 121.824 119.12C119.815 118.285 118.093 117.141 116.656 115.69C115.219 114.238 114.105 112.516 113.313 110.522C112.536 108.528 112.148 106.365 112.148 104.034C112.148 101.703 112.536 99.5482 113.313 97.5689C114.105 95.5751 115.219 93.8524 116.656 92.401C118.093 90.9496 119.815 89.8134 121.824 88.9924C123.832 88.1567 126.061 87.7389 128.509 87.7389C130.957 87.7389 133.186 88.1567 135.194 88.9924C137.203 89.8134 138.918 90.9569 140.34 92.423C141.777 93.8744 142.884 95.5971 143.661 97.5909C144.453 99.5701 144.849 101.718 144.849 104.034ZM138.097 104.034C138.097 102.363 137.877 100.868 137.438 99.5482C136.998 98.214 136.36 97.0851 135.524 96.1615C134.703 95.2232 133.699 94.5122 132.511 94.0284C131.339 93.5299 130.004 93.2807 128.509 93.2807C127.014 93.2807 125.672 93.5299 124.485 94.0284C123.297 94.5122 122.286 95.2232 121.45 96.1615C120.629 97.0851 119.998 98.214 119.559 99.5482C119.119 100.868 118.899 102.363 118.899 104.034C118.899 105.72 119.119 107.23 119.559 108.565C119.998 109.884 120.629 111.006 121.45 111.929C122.286 112.853 123.297 113.564 124.485 114.062C125.672 114.546 127.014 114.788 128.509 114.788C130.004 114.788 131.339 114.546 132.511 114.062C133.699 113.564 134.703 112.853 135.524 111.929C136.36 111.006 136.998 109.884 137.438 108.565C137.877 107.23 138.097 105.72 138.097 104.034ZM168.601 114.634V120H149.667V88.0907H156.264V114.634H168.601ZM189.491 107.883L186.038 98.1187C185.833 97.6056 185.613 97.0045 185.379 96.3154C185.159 95.6264 184.946 94.8787 184.741 94.0723C184.536 94.8933 184.316 95.6557 184.081 96.3594C183.861 97.0485 183.649 97.6496 183.444 98.1627L180.013 107.883H189.491ZM200.575 120H195.451C194.879 120 194.41 119.868 194.043 119.604C193.691 119.326 193.428 118.974 193.252 118.549L191.096 112.457H178.386L176.23 118.549C176.084 118.915 175.827 119.252 175.461 119.56C175.094 119.853 174.632 120 174.075 120H168.907L181.376 88.0907H188.128L200.575 120ZM220.813 94.2043C220.608 94.5415 220.395 94.7907 220.175 94.952C219.97 95.0986 219.699 95.1719 219.362 95.1719C219.039 95.1719 218.687 95.0619 218.306 94.842C217.94 94.6075 217.507 94.3582 217.009 94.0943C216.51 93.8304 215.938 93.5885 215.293 93.3686C214.648 93.134 213.893 93.0168 213.028 93.0168C211.504 93.0168 210.36 93.3613 209.598 94.0504C208.835 94.7247 208.454 95.6117 208.454 96.7113C208.454 97.415 208.659 98.0014 209.07 98.4706C209.495 98.9251 210.045 99.3209 210.719 99.6581C211.408 99.9953 212.185 100.296 213.05 100.56C213.915 100.824 214.802 101.117 215.711 101.439C216.62 101.747 217.507 102.114 218.372 102.539C219.237 102.964 220.007 103.499 220.681 104.144C221.37 104.789 221.92 105.581 222.331 106.519C222.756 107.443 222.968 108.572 222.968 109.906C222.968 111.357 222.712 112.721 222.199 113.996C221.7 115.257 220.974 116.364 220.021 117.317C219.068 118.255 217.888 118.996 216.481 119.538C215.088 120.081 213.505 120.352 211.731 120.352C210.719 120.352 209.708 120.249 208.696 120.044C207.699 119.839 206.731 119.553 205.793 119.186C204.869 118.82 203.997 118.38 203.176 117.867C202.355 117.354 201.637 116.782 201.021 116.152L202.956 113.029C203.118 112.794 203.33 112.604 203.594 112.457C203.858 112.296 204.136 112.215 204.43 112.215C204.826 112.215 205.243 112.362 205.683 112.655C206.123 112.948 206.629 113.271 207.201 113.623C207.772 113.974 208.432 114.297 209.18 114.59C209.942 114.883 210.851 115.03 211.907 115.03C213.446 115.03 214.634 114.678 215.469 113.974C216.32 113.271 216.745 112.222 216.745 110.83C216.745 110.023 216.532 109.371 216.107 108.872C215.697 108.374 215.154 107.956 214.48 107.619C213.805 107.282 213.036 106.996 212.171 106.761C211.306 106.512 210.419 106.241 209.51 105.948C208.601 105.654 207.714 105.303 206.849 104.892C205.984 104.482 205.214 103.939 204.54 103.265C203.865 102.59 203.315 101.755 202.89 100.758C202.48 99.7607 202.275 98.5219 202.275 97.0412C202.275 95.8536 202.509 94.7028 202.978 93.5885C203.447 92.4743 204.136 91.4847 205.045 90.6197C205.954 89.7547 207.069 89.0583 208.388 88.5306C209.722 88.0028 211.247 87.7389 212.962 87.7389C214.883 87.7389 216.657 88.0394 218.284 88.6405C219.926 89.2269 221.312 90.0479 222.44 91.1035L220.813 94.2043Z" fill="white"/>
</svg>
