<svg width="332" height="123" viewBox="0 0 332 123" fill="none" xmlns="http://www.w3.org/2000/svg">
<g clip-path="url(#clip0_1405_96)">
<path d="M0 36.1289L16.1484 36.1289C16.1484 29.0715 21.5312 16.0332 32.6556 14.2389C42.7035 12.6183 48.7538 17.0893 54.9044 17.8274C63.8758 18.904 71.7705 2.7556 87.9189 2.7556C99.0433 2.7556 119.139 8.13838 118.78 36.1289" stroke="white" stroke-width="1.26966" stroke-linejoin="bevel"/>
<path d="M0 45.0999L16.1484 45.0999C16.1484 38.0424 21.5312 25.0041 32.6556 23.2098C42.7035 21.5892 48.7538 26.0603 54.9044 26.7984C63.8758 27.8749 71.7705 11.7265 87.9189 11.7265C99.0433 11.7265 119.139 17.1093 118.78 45.0998" stroke="white" stroke-width="1.26966" stroke-linejoin="bevel"/>
<path d="M0 54.0709L16.1484 54.0709C16.1484 47.0135 21.5312 33.9752 32.6556 32.1809C42.7035 30.5603 48.7538 35.0314 54.9044 35.7694C63.8758 36.846 71.7705 20.6976 87.9189 20.6976C99.0433 20.6976 119.139 26.0804 118.78 54.0709" stroke="white" stroke-width="1.26966" stroke-linejoin="bevel"/>
<path d="M0 63.0432L16.1484 63.0432C16.1484 55.9858 21.5312 42.9475 32.6556 41.1532C42.7035 39.5326 48.7538 44.0036 54.9044 44.7417C63.8758 45.8183 71.7705 29.6699 87.9189 29.6699C99.0433 29.6699 119.139 35.0527 118.78 63.0432" stroke="white" stroke-width="1.26966" stroke-linejoin="bevel"/>
<path d="M0 72.0143L16.1484 72.0143C16.1484 64.9568 21.5312 51.9185 32.6556 50.1243C42.7035 48.5036 48.7538 52.9747 54.9044 53.7128C63.8758 54.7893 71.7705 38.641 87.9189 38.641C99.0433 38.641 119.139 44.0238 118.78 72.0143" stroke="white" stroke-width="5.07862" stroke-linejoin="bevel"/>
<path d="M0 80.9852L16.1484 80.9852C16.1484 73.9278 21.5312 60.8895 32.6556 59.0952C42.7035 57.4746 48.7538 61.9457 54.9044 62.6837C63.8758 63.7603 71.7705 47.6119 87.9189 47.6119C99.0433 47.6119 119.139 52.9947 118.78 80.9852" stroke="white" stroke-width="1.26966" stroke-linejoin="bevel"/>
<path d="M0 89.9569L16.1484 89.9569C16.1484 82.8995 21.5312 69.8612 32.6556 68.0669C42.7035 66.4463 48.7538 70.9173 54.9044 71.6554C63.8758 72.732 71.7705 56.5836 87.9189 56.5836C99.0433 56.5836 119.139 61.9664 118.78 89.9569" stroke="white" stroke-width="5.07862" stroke-linejoin="bevel"/>
<path d="M0 98.928L16.1484 98.928C16.1484 91.8705 21.5312 78.8322 32.6556 77.038C42.7035 75.4173 48.7538 79.8884 54.9044 80.6265C63.8758 81.703 71.7705 65.5547 87.9189 65.5547C99.0433 65.5547 119.139 70.9375 118.78 98.928" stroke="white" stroke-width="1.26966" stroke-linejoin="bevel"/>
<path d="M0 107.9L16.1484 107.9C16.1484 100.842 21.5312 87.8038 32.6556 86.0095C42.7035 84.3889 48.7538 88.86 54.9044 89.598C63.8758 90.6746 71.7705 74.5262 87.9189 74.5262C99.0433 74.5262 119.139 79.909 118.78 107.9" stroke="white" stroke-width="5.07862" stroke-linejoin="bevel"/>
<path d="M0 116.871L16.1484 116.871C16.1484 109.813 21.5312 96.7749 32.6556 94.9806C42.7035 93.36 48.7538 97.831 54.9044 98.5691C63.8758 99.6457 71.7705 83.4973 87.9189 83.4973C99.0433 83.4973 119.139 88.8801 118.78 116.871" stroke="white" stroke-width="1.26966" stroke-linejoin="bevel"/>
</g>
<path d="M150.435 25.796C150.435 27.1176 150.598 28.3233 150.922 29.4131C151.247 30.4796 151.711 31.3955 152.314 32.1606C152.94 32.9026 153.693 33.4822 154.574 33.8996C155.455 34.3169 156.452 34.5256 157.565 34.5256C158.655 34.5256 159.64 34.3169 160.521 33.8996C161.402 33.4822 162.144 32.9026 162.747 32.1606C163.373 31.3955 163.849 30.4796 164.173 29.4131C164.498 28.3233 164.66 27.1176 164.66 25.796C164.66 24.4744 164.498 23.2803 164.173 22.2138C163.849 21.124 163.373 20.2082 162.747 19.4662C162.144 18.7011 161.402 18.1098 160.521 17.6925C159.64 17.2751 158.655 17.0665 157.565 17.0665C156.452 17.0665 155.455 17.2751 154.574 17.6925C153.693 18.1098 152.94 18.7011 152.314 19.4662C151.711 20.2314 151.247 21.1472 150.922 22.2138C150.598 23.2803 150.435 24.4744 150.435 25.796ZM169.251 25.796C169.251 27.8596 168.938 29.6797 168.312 31.2563C167.709 32.833 166.874 34.1546 165.808 35.2212C164.764 36.2645 163.536 37.0529 162.121 37.5861C160.707 38.1194 159.2 38.3861 157.6 38.3861C156 38.3861 154.481 38.1194 153.044 37.5861C151.63 37.0529 150.389 36.2645 149.323 35.2212C148.279 34.1546 147.444 32.833 146.818 31.2563C146.192 29.6797 145.879 27.8596 145.879 25.796C145.879 23.7325 146.192 21.924 146.818 20.3705C147.444 18.7938 148.291 17.4722 149.357 16.4057C150.447 15.3391 151.699 14.5392 153.113 14.0059C154.528 13.4726 156.023 13.206 157.6 13.206C159.177 13.206 160.672 13.4726 162.086 14.0059C163.501 14.5392 164.73 15.3391 165.773 16.4057C166.84 17.4722 167.686 18.7938 168.312 20.3705C168.938 21.924 169.251 23.7325 169.251 25.796ZM184.214 23.4658C183.866 23.3499 183.379 23.234 182.753 23.118C182.15 22.9789 181.443 22.9094 180.632 22.9094C180.168 22.9094 179.669 22.9557 179.136 23.0485C178.626 23.1412 178.267 23.2224 178.058 23.2919V37.8644H173.85V20.5444C174.661 20.243 175.67 19.9647 176.875 19.7097C178.104 19.4315 179.461 19.2923 180.945 19.2923C181.223 19.2923 181.547 19.3155 181.918 19.3619C182.289 19.3851 182.66 19.4315 183.031 19.501C183.402 19.5474 183.762 19.6169 184.11 19.7097C184.457 19.7792 184.736 19.8488 184.944 19.9184L184.214 23.4658ZM190.841 28.8566C190.841 30.6187 191.189 32.0215 191.885 33.0649C192.603 34.1082 193.728 34.6299 195.258 34.6299C195.954 34.6299 196.603 34.5256 197.206 34.3169C197.832 34.085 198.33 33.8416 198.701 33.5865V23.1876C198.4 23.118 198.017 23.0601 197.554 23.0137C197.113 22.9441 196.533 22.9094 195.815 22.9094C194.261 22.9094 193.044 23.4426 192.163 24.5092C191.282 25.5526 190.841 27.0017 190.841 28.8566ZM186.529 28.787C186.529 27.3495 186.737 26.0511 187.155 24.8918C187.595 23.7093 188.21 22.7123 188.998 21.9008C189.809 21.0661 190.783 20.4285 191.919 19.9879C193.055 19.5242 194.342 19.2923 195.78 19.2923C197.217 19.2923 198.562 19.3967 199.814 19.6053C201.066 19.814 202.098 20.0343 202.91 20.2661V44.2985H198.701V37.2384C198.214 37.4934 197.612 37.7253 196.893 37.9339C196.197 38.1426 195.42 38.247 194.563 38.247C193.264 38.247 192.116 38.0267 191.119 37.5861C190.122 37.1224 189.288 36.4732 188.615 35.6385C187.943 34.8038 187.421 33.8068 187.05 32.6475C186.702 31.4882 186.529 30.2014 186.529 28.787ZM223.175 37.3079C222.364 37.5166 221.309 37.7253 220.011 37.9339C218.712 38.1658 217.286 38.2817 215.733 38.2817C214.272 38.2817 213.043 38.0731 212.046 37.6557C211.072 37.2384 210.284 36.6587 209.681 35.9167C209.101 35.1748 208.684 34.2937 208.429 33.2735C208.174 32.2302 208.047 31.094 208.047 29.8652V19.6749H212.255V29.2044C212.255 31.152 212.533 32.5432 213.089 33.3779C213.669 34.2126 214.666 34.6299 216.08 34.6299C216.591 34.6299 217.124 34.6067 217.68 34.5604C218.26 34.514 218.689 34.456 218.967 34.3865V19.6749H223.175V37.3079ZM227.523 28.8566C227.523 27.2568 227.755 25.854 228.219 24.6483C228.706 23.4426 229.343 22.4456 230.132 21.6573C230.92 20.8458 231.824 20.243 232.844 19.8488C233.864 19.4315 234.908 19.2228 235.974 19.2228C238.479 19.2228 240.426 19.9995 241.817 21.553C243.232 23.1064 243.939 25.4251 243.939 28.5088C243.939 28.7407 243.927 29.0073 243.904 29.3087C243.904 29.587 243.892 29.842 243.869 30.0739H231.87C231.986 31.5346 232.497 32.6707 233.401 33.4822C234.328 34.2705 235.661 34.6647 237.4 34.6647C238.421 34.6647 239.348 34.572 240.183 34.3865C241.041 34.201 241.713 34.0039 242.2 33.7952L242.756 37.2384C242.524 37.3543 242.2 37.4818 241.783 37.6209C241.388 37.7369 240.925 37.8412 240.391 37.9339C239.881 38.0499 239.325 38.1426 238.722 38.2122C238.119 38.2817 237.505 38.3165 236.879 38.3165C235.279 38.3165 233.888 38.0846 232.705 37.6209C231.523 37.134 230.549 36.4732 229.784 35.6385C229.019 34.7806 228.451 33.7836 228.08 32.6475C227.709 31.4882 227.523 30.2246 227.523 28.8566ZM239.731 26.9785C239.731 26.3989 239.649 25.854 239.487 25.3439C239.325 24.8106 239.081 24.3585 238.757 23.9875C238.455 23.5934 238.073 23.2919 237.609 23.0833C237.169 22.8514 236.635 22.7355 236.009 22.7355C235.36 22.7355 234.792 22.863 234.305 23.118C233.818 23.3499 233.401 23.6629 233.053 24.0571C232.728 24.4512 232.473 24.9034 232.288 25.4135C232.102 25.9236 231.975 26.4452 231.905 26.9785H239.731ZM252.957 34.8386C254.07 34.8386 254.881 34.7111 255.391 34.456C255.901 34.1778 256.156 33.7141 256.156 33.0649C256.156 32.462 255.878 31.9635 255.322 31.5694C254.788 31.1752 253.896 30.7463 252.644 30.2825C251.879 30.0043 251.171 29.7145 250.522 29.4131C249.896 29.0885 249.351 28.7175 248.888 28.3001C248.424 27.8828 248.053 27.3843 247.775 26.8046C247.52 26.2018 247.392 25.4714 247.392 24.6135C247.392 22.9441 248.006 21.6341 249.235 20.6835C250.464 19.7097 252.134 19.2228 254.244 19.2228C255.31 19.2228 256.33 19.3271 257.304 19.5358C258.278 19.7213 259.008 19.9068 259.495 20.0923L258.73 23.5006C258.266 23.2919 257.675 23.1064 256.956 22.9441C256.238 22.7587 255.403 22.6659 254.452 22.6659C253.594 22.6659 252.899 22.8166 252.365 23.118C251.832 23.3963 251.566 23.8368 251.566 24.4396C251.566 24.7411 251.612 25.0077 251.705 25.2396C251.821 25.4714 252.006 25.6917 252.261 25.9004C252.516 26.0859 252.852 26.2829 253.27 26.4916C253.687 26.6771 254.197 26.8742 254.8 27.0829C255.797 27.4538 256.643 27.8248 257.339 28.1958C258.034 28.5436 258.602 28.9493 259.043 29.4131C259.507 29.8536 259.843 30.3637 260.052 30.9433C260.26 31.523 260.365 32.2186 260.365 33.0301C260.365 34.769 259.715 36.0906 258.417 36.9949C257.142 37.876 255.31 38.3165 252.922 38.3165C251.322 38.3165 250.035 38.1774 249.061 37.8992C248.088 37.6441 247.404 37.4354 247.009 37.2731L247.74 33.7604C248.366 34.0155 249.108 34.2589 249.966 34.4908C250.847 34.7227 251.844 34.8386 252.957 34.8386ZM264.087 14.8754L268.295 14.1798V19.6749H274.764V23.1876H268.295V30.5955C268.295 32.0563 268.527 33.0996 268.991 33.7257C269.455 34.3517 270.243 34.6647 271.356 34.6647C272.121 34.6647 272.793 34.5836 273.373 34.4212C273.976 34.2589 274.451 34.1082 274.799 33.9691L275.495 37.3079C275.008 37.5166 274.37 37.7253 273.582 37.9339C272.793 38.1658 271.866 38.2817 270.799 38.2817C269.501 38.2817 268.411 38.1078 267.53 37.76C266.672 37.4123 265.988 36.9138 265.478 36.2645C264.968 35.5921 264.609 34.7922 264.4 33.8648C264.191 32.9142 264.087 31.836 264.087 30.6303V14.8754ZM289.197 23.4658C288.849 23.3499 288.362 23.234 287.736 23.118C287.133 22.9789 286.426 22.9094 285.614 22.9094C285.151 22.9094 284.652 22.9557 284.119 23.0485C283.609 23.1412 283.249 23.2224 283.041 23.2919V37.8644H278.832V20.5444C279.644 20.243 280.652 19.9647 281.858 19.7097C283.087 19.4315 284.443 19.2923 285.927 19.2923C286.206 19.2923 286.53 19.3155 286.901 19.3619C287.272 19.3851 287.643 19.4315 288.014 19.501C288.385 19.5474 288.744 19.6169 289.092 19.7097C289.44 19.7792 289.718 19.8488 289.927 19.9184L289.197 23.4658ZM299.259 34.9082C300.557 34.9082 301.543 34.8386 302.215 34.6995V30.0391C301.983 29.9695 301.647 29.9 301.206 29.8304C300.766 29.7608 300.279 29.7261 299.746 29.7261C299.282 29.7261 298.807 29.7608 298.32 29.8304C297.856 29.9 297.427 30.0275 297.033 30.213C296.662 30.3985 296.361 30.6651 296.129 31.0129C295.897 31.3375 295.781 31.7548 295.781 32.2649C295.781 33.2619 296.094 33.9575 296.72 34.3517C297.346 34.7227 298.192 34.9082 299.259 34.9082ZM298.911 19.2228C300.302 19.2228 301.473 19.3967 302.424 19.7445C303.374 20.0923 304.128 20.5792 304.684 21.2052C305.264 21.8312 305.67 22.5963 305.902 23.5006C306.157 24.3817 306.284 25.3555 306.284 26.4221V37.447C305.635 37.5861 304.65 37.7484 303.328 37.9339C302.03 38.1426 300.557 38.247 298.911 38.247C297.821 38.247 296.824 38.1426 295.92 37.9339C295.016 37.7253 294.239 37.3891 293.59 36.9253C292.964 36.4616 292.465 35.8588 292.094 35.1168C291.747 34.3749 291.573 33.459 291.573 32.3693C291.573 31.3259 291.77 30.4448 292.164 29.7261C292.581 29.0073 293.138 28.4276 293.833 27.9871C294.529 27.5234 295.329 27.1988 296.233 27.0133C297.16 26.8046 298.123 26.7003 299.12 26.7003C299.583 26.7003 300.07 26.7351 300.58 26.8046C301.091 26.851 301.635 26.9437 302.215 27.0829V26.3873C302.215 25.9004 302.157 25.4366 302.041 24.9961C301.925 24.5556 301.717 24.173 301.415 23.8484C301.137 23.5006 300.754 23.234 300.267 23.0485C299.804 22.863 299.212 22.7702 298.494 22.7702C297.52 22.7702 296.627 22.8398 295.816 22.9789C295.004 23.118 294.343 23.2803 293.833 23.4658L293.312 20.0575C293.845 19.872 294.622 19.6865 295.642 19.501C296.662 19.3155 297.752 19.2228 298.911 19.2228ZM146.853 76.8644V52.7625H162.086V56.4838H151.235V62.6397H160.869V66.3611H151.235V76.8644H146.853ZM170.043 76.8644H165.835V58.6749H170.043V76.8644ZM170.495 53.3537C170.495 54.142 170.24 54.7681 169.73 55.2318C169.22 55.6955 168.617 55.9274 167.922 55.9274C167.203 55.9274 166.589 55.6955 166.078 55.2318C165.568 54.7681 165.313 54.142 165.313 53.3537C165.313 52.5422 165.568 51.9046 166.078 51.4409C166.589 50.9771 167.203 50.7453 167.922 50.7453C168.617 50.7453 169.22 50.9771 169.73 51.4409C170.24 51.9046 170.495 52.5422 170.495 53.3537ZM181.742 77.2122C180.49 77.189 179.446 77.0499 178.612 76.7948C177.8 76.5398 177.151 76.1804 176.664 75.7167C176.177 75.2298 175.829 74.6385 175.621 73.9429C175.435 73.2242 175.342 72.4127 175.342 71.5084V50.5714L179.551 49.8758V70.7085C179.551 71.2186 179.586 71.6475 179.655 71.9953C179.748 72.3431 179.899 72.6445 180.107 72.8996C180.316 73.1314 180.594 73.3169 180.942 73.456C181.313 73.572 181.777 73.6647 182.333 73.7343L181.742 77.2122ZM192.136 73.9082C193.435 73.9082 194.42 73.8386 195.093 73.6995V69.0391C194.861 68.9695 194.525 68.9 194.084 68.8304C193.644 68.7608 193.157 68.7261 192.623 68.7261C192.16 68.7261 191.684 68.7608 191.197 68.8304C190.734 68.9 190.305 69.0275 189.911 69.213C189.54 69.3985 189.238 69.6651 189.006 70.0129C188.774 70.3375 188.659 70.7548 188.659 71.2649C188.659 72.2619 188.972 72.9575 189.598 73.3517C190.224 73.7227 191.07 73.9082 192.136 73.9082ZM191.789 58.2228C193.18 58.2228 194.351 58.3967 195.301 58.7445C196.252 59.0923 197.006 59.5792 197.562 60.2052C198.142 60.8312 198.547 61.5963 198.779 62.5006C199.034 63.3817 199.162 64.3555 199.162 65.4221V76.447C198.513 76.5861 197.527 76.7484 196.206 76.9339C194.907 77.1426 193.435 77.247 191.789 77.247C190.699 77.247 189.702 77.1426 188.798 76.9339C187.893 76.7253 187.117 76.3891 186.467 75.9253C185.841 75.4616 185.343 74.8588 184.972 74.1168C184.624 73.3749 184.45 72.459 184.45 71.3693C184.45 70.3259 184.647 69.4448 185.041 68.7261C185.459 68.0073 186.015 67.4276 186.711 66.9871C187.406 66.5234 188.206 66.1988 189.111 66.0133C190.038 65.8046 191 65.7003 191.997 65.7003C192.461 65.7003 192.948 65.7351 193.458 65.8046C193.968 65.851 194.513 65.9437 195.093 66.0829V65.3873C195.093 64.9004 195.035 64.4366 194.919 63.9961C194.803 63.5556 194.594 63.173 194.293 62.8484C194.015 62.5006 193.632 62.234 193.145 62.0485C192.681 61.863 192.09 61.7702 191.371 61.7702C190.397 61.7702 189.505 61.8398 188.693 61.9789C187.882 62.118 187.221 62.2803 186.711 62.4658L186.189 59.0575C186.722 58.872 187.499 58.6865 188.519 58.501C189.54 58.3155 190.629 58.2228 191.789 58.2228ZM214.68 62.4658C214.332 62.3499 213.845 62.234 213.219 62.118C212.616 61.9789 211.909 61.9094 211.097 61.9094C210.634 61.9094 210.135 61.9557 209.602 62.0485C209.092 62.1412 208.732 62.2224 208.524 62.2919V76.8644H204.315V59.5444C205.127 59.243 206.135 58.9647 207.341 58.7097C208.57 58.4315 209.926 58.2923 211.41 58.2923C211.689 58.2923 212.013 58.3155 212.384 58.3619C212.755 58.3851 213.126 58.4315 213.497 58.501C213.868 58.5474 214.227 58.6169 214.575 58.7097C214.923 58.7792 215.201 58.8488 215.41 58.9184L214.68 62.4658ZM228.707 67.3001C228.707 65.3989 228.463 64.0309 227.976 63.1962C227.513 62.3383 226.632 61.9094 225.333 61.9094C224.869 61.9094 224.359 61.9441 223.803 62.0137C223.246 62.0833 222.829 62.1412 222.551 62.1876V76.8644H218.342V59.2661C219.154 59.0343 220.209 58.814 221.507 58.6053C222.829 58.3967 224.22 58.2923 225.681 58.2923C226.933 58.2923 227.953 58.4546 228.741 58.7792C229.553 59.1038 230.225 59.5328 230.759 60.0661C231.014 59.8806 231.338 59.6835 231.732 59.4748C232.127 59.2662 232.567 59.0807 233.054 58.9184C233.541 58.7329 234.051 58.5822 234.584 58.4662C235.141 58.3503 235.697 58.2923 236.254 58.2923C237.668 58.2923 238.827 58.501 239.732 58.9184C240.659 59.3125 241.378 59.8806 241.888 60.6225C242.421 61.3413 242.781 62.2224 242.966 63.2657C243.175 64.2859 243.279 65.4105 243.279 66.6393V76.8644H239.071V67.3001C239.071 65.3989 238.839 64.0309 238.375 63.1962C237.912 62.3383 237.019 61.9094 235.697 61.9094C235.025 61.9094 234.387 62.0253 233.784 62.2572C233.182 62.4658 232.729 62.6745 232.428 62.8832C232.614 63.4628 232.741 64.0773 232.811 64.7265C232.88 65.3757 232.915 66.0713 232.915 66.8132V76.8644H228.707V67.3001ZM264.885 67.7523C264.885 69.1898 264.676 70.4998 264.259 71.6823C263.842 72.8648 263.25 73.8734 262.485 74.7081C261.72 75.5428 260.793 76.192 259.703 76.6557C258.636 77.1194 257.454 77.3513 256.156 77.3513C254.857 77.3513 253.675 77.1194 252.608 76.6557C251.542 76.192 250.626 75.5428 249.861 74.7081C249.095 73.8734 248.493 72.8648 248.052 71.6823C247.635 70.4998 247.426 69.1898 247.426 67.7523C247.426 66.3147 247.635 65.0163 248.052 63.857C248.493 62.6745 249.095 61.6659 249.861 60.8312C250.649 59.9965 251.576 59.3589 252.643 58.9184C253.709 58.4546 254.88 58.2228 256.156 58.2228C257.431 58.2228 258.602 58.4546 259.668 58.9184C260.758 59.3589 261.685 59.9965 262.451 60.8312C263.216 61.6659 263.807 62.6745 264.224 63.857C264.665 65.0163 264.885 66.3147 264.885 67.7523ZM260.572 67.7523C260.572 65.9437 260.178 64.5178 259.39 63.4744C258.625 62.4079 257.547 61.8746 256.156 61.8746C254.764 61.8746 253.675 62.4079 252.886 63.4744C252.121 64.5178 251.739 65.9437 251.739 67.7523C251.739 69.584 252.121 71.0331 252.886 72.0996C253.675 73.1662 254.764 73.6995 256.156 73.6995C257.547 73.6995 258.625 73.1662 259.39 72.0996C260.178 71.0331 260.572 69.584 260.572 67.7523ZM261.199 54.7796L259.564 56.6229L256.121 53.8058L252.712 56.6229L251.043 54.7796L256.121 49.9106L261.199 54.7796ZM269.221 59.2661C270.032 59.0343 271.087 58.814 272.385 58.6053C273.684 58.3967 275.121 58.2923 276.698 58.2923C278.182 58.2923 279.422 58.501 280.419 58.9184C281.416 59.3125 282.205 59.8806 282.784 60.6225C283.387 61.3413 283.805 62.2224 284.036 63.2657C284.291 64.2859 284.419 65.4105 284.419 66.6393V76.8644H280.211V67.3001C280.211 66.3263 280.141 65.5032 280.002 64.8308C279.886 64.1352 279.677 63.5788 279.376 63.1614C279.098 62.7209 278.704 62.4079 278.194 62.2224C277.707 62.0137 277.104 61.9094 276.385 61.9094C275.852 61.9094 275.295 61.9441 274.716 62.0137C274.136 62.0833 273.707 62.1412 273.429 62.1876V76.8644H269.221V59.2661ZM293.808 76.8644H289.6V58.6749H293.808V76.8644ZM294.26 53.3537C294.26 54.142 294.005 54.7681 293.495 55.2318C292.985 55.6955 292.382 55.9274 291.686 55.9274C290.968 55.9274 290.353 55.6955 289.843 55.2318C289.333 54.7681 289.078 54.142 289.078 53.3537C289.078 52.5422 289.333 51.9046 289.843 51.4409C290.353 50.9771 290.968 50.7453 291.686 50.7453C292.382 50.7453 292.985 50.9771 293.495 51.4409C294.005 51.9046 294.26 52.5422 294.26 53.3537ZM298.168 67.787C298.168 66.4422 298.377 65.1902 298.794 64.0309C299.212 62.8484 299.803 61.8282 300.568 60.9703C301.356 60.1124 302.307 59.44 303.42 58.9531C304.533 58.4662 305.785 58.2228 307.176 58.2228C308.892 58.2228 310.515 58.5358 312.045 59.1618L311.141 62.6049C310.654 62.3963 310.097 62.2224 309.471 62.0833C308.869 61.9441 308.219 61.8746 307.524 61.8746C305.878 61.8746 304.625 62.3963 303.768 63.4396C302.91 64.4598 302.481 65.909 302.481 67.787C302.481 69.5955 302.887 71.0331 303.698 72.0996C304.51 73.143 305.878 73.6647 307.802 73.6647C308.521 73.6647 309.228 73.5951 309.924 73.456C310.619 73.3169 311.222 73.143 311.732 72.9343L312.323 76.4123C311.86 76.6441 311.152 76.8528 310.202 77.0383C309.274 77.2238 308.312 77.3165 307.315 77.3165C305.762 77.3165 304.405 77.0846 303.246 76.6209C302.11 76.134 301.159 75.4732 300.394 74.6385C299.652 73.7806 299.096 72.772 298.725 71.6127C298.354 70.4302 298.168 69.155 298.168 67.787ZM321.981 73.9082C323.279 73.9082 324.265 73.8386 324.937 73.6995V69.0391C324.705 68.9695 324.369 68.9 323.928 68.8304C323.488 68.7608 323.001 68.7261 322.468 68.7261C322.004 68.7261 321.529 68.7608 321.042 68.8304C320.578 68.9 320.149 69.0275 319.755 69.213C319.384 69.3985 319.082 69.6651 318.851 70.0129C318.619 70.3375 318.503 70.7548 318.503 71.2649C318.503 72.2619 318.816 72.9575 319.442 73.3517C320.068 73.7227 320.914 73.9082 321.981 73.9082ZM321.633 58.2228C323.024 58.2228 324.195 58.3967 325.146 58.7445C326.096 59.0923 326.85 59.5792 327.406 60.2052C327.986 60.8312 328.392 61.5963 328.624 62.5006C328.879 63.3817 329.006 64.3555 329.006 65.4221V76.447C328.357 76.5861 327.371 76.7484 326.05 76.9339C324.751 77.1426 323.279 77.247 321.633 77.247C320.543 77.247 319.546 77.1426 318.642 76.9339C317.738 76.7253 316.961 76.3891 316.312 75.9253C315.686 75.4616 315.187 74.8588 314.816 74.1168C314.468 73.3749 314.295 72.459 314.295 71.3693C314.295 70.3259 314.492 69.4448 314.886 68.7261C315.303 68.0073 315.86 67.4276 316.555 66.9871C317.251 66.5234 318.051 66.1988 318.955 66.0133C319.882 65.8046 320.845 65.7003 321.842 65.7003C322.305 65.7003 322.792 65.7351 323.302 65.8046C323.812 65.851 324.357 65.9437 324.937 66.0829V65.3873C324.937 64.9004 324.879 64.4366 324.763 63.9961C324.647 63.5556 324.438 63.173 324.137 62.8484C323.859 62.5006 323.476 62.234 322.989 62.0485C322.526 61.863 321.934 61.7702 321.216 61.7702C320.242 61.7702 319.349 61.8398 318.538 61.9789C317.726 62.118 317.065 62.2803 316.555 62.4658L316.033 59.0575C316.567 58.872 317.343 58.6865 318.364 58.501C319.384 58.3155 320.474 58.2228 321.633 58.2228ZM149.949 106.717C149.949 108.572 150.389 110.033 151.27 111.1C152.151 112.143 153.369 112.665 154.922 112.665C155.594 112.665 156.162 112.642 156.626 112.595C157.113 112.526 157.507 112.456 157.809 112.386V101.953C157.438 101.698 156.939 101.466 156.313 101.257C155.71 101.025 155.061 100.909 154.366 100.909C152.835 100.909 151.711 101.431 150.992 102.474C150.296 103.518 149.949 104.932 149.949 106.717ZM162.017 115.308C161.182 115.563 160.127 115.795 158.852 116.003C157.6 116.212 156.278 116.317 154.887 116.317C153.45 116.317 152.163 116.096 151.027 115.656C149.891 115.215 148.917 114.589 148.105 113.778C147.317 112.943 146.703 111.946 146.262 110.787C145.845 109.604 145.636 108.283 145.636 106.822C145.636 105.384 145.81 104.086 146.158 102.927C146.529 101.744 147.062 100.735 147.757 99.9008C148.453 99.0661 149.299 98.4285 150.296 97.9879C151.293 97.5242 152.441 97.2923 153.739 97.2923C154.621 97.2923 155.397 97.3967 156.07 97.6053C156.742 97.814 157.322 98.0459 157.809 98.3009V89.5714L162.017 88.8758V115.308ZM166.354 106.857C166.354 105.257 166.586 103.854 167.05 102.648C167.536 101.443 168.174 100.446 168.962 99.6573C169.751 98.8458 170.655 98.243 171.675 97.8488C172.695 97.4315 173.739 97.2228 174.805 97.2228C177.309 97.2228 179.257 97.9995 180.648 99.553C182.063 101.106 182.77 103.425 182.77 106.509C182.77 106.741 182.758 107.007 182.735 107.309C182.735 107.587 182.723 107.842 182.7 108.074H170.701C170.817 109.535 171.327 110.671 172.232 111.482C173.159 112.271 174.492 112.665 176.231 112.665C177.251 112.665 178.179 112.572 179.014 112.386C179.871 112.201 180.544 112.004 181.031 111.795L181.587 115.238C181.355 115.354 181.031 115.482 180.613 115.621C180.219 115.737 179.756 115.841 179.222 115.934C178.712 116.05 178.156 116.143 177.553 116.212C176.95 116.282 176.336 116.317 175.71 116.317C174.11 116.317 172.719 116.085 171.536 115.621C170.354 115.134 169.38 114.473 168.615 113.639C167.849 112.781 167.281 111.784 166.91 110.648C166.539 109.488 166.354 108.225 166.354 106.857ZM178.561 104.979C178.561 104.399 178.48 103.854 178.318 103.344C178.156 102.811 177.912 102.358 177.588 101.988C177.286 101.593 176.904 101.292 176.44 101.083C175.999 100.851 175.466 100.735 174.84 100.735C174.191 100.735 173.623 100.863 173.136 101.118C172.649 101.35 172.232 101.663 171.884 102.057C171.559 102.451 171.304 102.903 171.119 103.413C170.933 103.924 170.806 104.445 170.736 104.979H178.561ZM202.444 115.864C200.705 112.108 199.024 108.178 197.401 104.074C195.801 99.9703 194.306 95.8664 192.914 91.7625H197.749C198.305 93.3855 198.873 95.0433 199.453 96.7359C200.032 98.4285 200.612 100.098 201.192 101.744C201.771 103.367 202.351 104.944 202.931 106.474C203.51 108.004 204.078 109.407 204.635 110.682C205.168 109.407 205.725 108.016 206.304 106.509C206.884 104.979 207.464 103.39 208.043 101.744C208.646 100.098 209.237 98.4285 209.817 96.7359C210.397 95.0433 210.953 93.3855 211.486 91.7625H216.182C214.767 95.8664 213.26 99.9703 211.66 104.074C210.06 108.178 208.391 112.108 206.652 115.864H202.444ZM223.333 115.864H219.124V97.6749H223.333V115.864ZM223.785 92.3537C223.785 93.142 223.53 93.7681 223.02 94.2318C222.51 94.6955 221.907 94.9274 221.211 94.9274C220.492 94.9274 219.878 94.6955 219.368 94.2318C218.858 93.7681 218.603 93.142 218.603 92.3537C218.603 91.5422 218.858 90.9046 219.368 90.4409C219.878 89.9771 220.492 89.7453 221.211 89.7453C221.907 89.7453 222.51 89.9771 223.02 90.4409C223.53 90.9046 223.785 91.5422 223.785 92.3537ZM245.152 106.752C245.152 108.19 244.943 109.5 244.526 110.682C244.109 111.865 243.517 112.873 242.752 113.708C241.987 114.543 241.06 115.192 239.97 115.656C238.903 116.119 237.721 116.351 236.422 116.351C235.124 116.351 233.942 116.119 232.875 115.656C231.808 115.192 230.893 114.543 230.127 113.708C229.362 112.873 228.759 111.865 228.319 110.682C227.902 109.5 227.693 108.19 227.693 106.752C227.693 105.315 227.902 104.016 228.319 102.857C228.759 101.675 229.362 100.666 230.127 99.8312C230.916 98.9965 231.843 98.3589 232.91 97.9184C233.976 97.4546 235.147 97.2228 236.422 97.2228C237.698 97.2228 238.869 97.4546 239.935 97.9184C241.025 98.3589 241.952 98.9965 242.717 99.8312C243.483 100.666 244.074 101.675 244.491 102.857C244.932 104.016 245.152 105.315 245.152 106.752ZM240.839 106.752C240.839 104.944 240.445 103.518 239.657 102.474C238.892 101.408 237.814 100.875 236.422 100.875C235.031 100.875 233.942 101.408 233.153 102.474C232.388 103.518 232.006 104.944 232.006 106.752C232.006 108.584 232.388 110.033 233.153 111.1C233.942 112.166 235.031 112.699 236.422 112.699C237.814 112.699 238.892 112.166 239.657 111.1C240.445 110.033 240.839 108.584 240.839 106.752ZM255.817 116.212C254.565 116.189 253.522 116.05 252.687 115.795C251.876 115.54 251.226 115.18 250.74 114.717C250.253 114.23 249.905 113.639 249.696 112.943C249.511 112.224 249.418 111.413 249.418 110.508V89.5714L253.626 88.8758V109.708C253.626 110.219 253.661 110.648 253.731 110.995C253.823 111.343 253.974 111.645 254.183 111.9C254.391 112.131 254.67 112.317 255.017 112.456C255.388 112.572 255.852 112.665 256.408 112.734L255.817 116.212ZM266.212 112.908C267.51 112.908 268.496 112.839 269.168 112.699V108.039C268.936 107.97 268.6 107.9 268.159 107.83C267.719 107.761 267.232 107.726 266.699 107.726C266.235 107.726 265.76 107.761 265.273 107.83C264.809 107.9 264.38 108.027 263.986 108.213C263.615 108.398 263.314 108.665 263.082 109.013C262.85 109.337 262.734 109.755 262.734 110.265C262.734 111.262 263.047 111.958 263.673 112.352C264.299 112.723 265.145 112.908 266.212 112.908ZM265.864 97.2228C267.255 97.2228 268.426 97.3967 269.377 97.7445C270.327 98.0923 271.081 98.5792 271.637 99.2052C272.217 99.8312 272.623 100.596 272.855 101.501C273.11 102.382 273.237 103.355 273.237 104.422V115.447C272.588 115.586 271.603 115.748 270.281 115.934C268.983 116.143 267.51 116.247 265.864 116.247C264.774 116.247 263.777 116.143 262.873 115.934C261.969 115.725 261.192 115.389 260.543 114.925C259.917 114.462 259.418 113.859 259.047 113.117C258.7 112.375 258.526 111.459 258.526 110.369C258.526 109.326 258.723 108.445 259.117 107.726C259.534 107.007 260.091 106.428 260.786 105.987C261.482 105.523 262.282 105.199 263.186 105.013C264.114 104.805 265.076 104.7 266.073 104.7C266.536 104.7 267.023 104.735 267.533 104.805C268.044 104.851 268.588 104.944 269.168 105.083V104.387C269.168 103.9 269.11 103.437 268.994 102.996C268.878 102.556 268.67 102.173 268.368 101.848C268.09 101.501 267.707 101.234 267.22 101.048C266.757 100.863 266.165 100.77 265.447 100.77C264.473 100.77 263.58 100.84 262.769 100.979C261.957 101.118 261.296 101.28 260.786 101.466L260.265 98.0575C260.798 97.872 261.575 97.6865 262.595 97.501C263.615 97.3155 264.705 97.2228 265.864 97.2228ZM282.947 112.839C284.06 112.839 284.871 112.711 285.381 112.456C285.892 112.178 286.147 111.714 286.147 111.065C286.147 110.462 285.868 109.964 285.312 109.569C284.779 109.175 283.886 108.746 282.634 108.283C281.869 108.004 281.162 107.714 280.512 107.413C279.886 107.088 279.341 106.717 278.878 106.3C278.414 105.883 278.043 105.384 277.765 104.805C277.51 104.202 277.382 103.471 277.382 102.614C277.382 100.944 277.997 99.6341 279.226 98.6835C280.454 97.7097 282.124 97.2228 284.234 97.2228C285.3 97.2228 286.32 97.3271 287.294 97.5358C288.268 97.7213 288.998 97.9068 289.485 98.0923L288.72 101.501C288.256 101.292 287.665 101.106 286.946 100.944C286.228 100.759 285.393 100.666 284.442 100.666C283.584 100.666 282.889 100.817 282.356 101.118C281.822 101.396 281.556 101.837 281.556 102.44C281.556 102.741 281.602 103.008 281.695 103.24C281.811 103.471 281.996 103.692 282.251 103.9C282.506 104.086 282.843 104.283 283.26 104.492C283.677 104.677 284.187 104.874 284.79 105.083C285.787 105.454 286.633 105.825 287.329 106.196C288.025 106.544 288.593 106.949 289.033 107.413C289.497 107.854 289.833 108.364 290.042 108.943C290.25 109.523 290.355 110.219 290.355 111.03C290.355 112.769 289.706 114.091 288.407 114.995C287.132 115.876 285.3 116.317 282.912 116.317C281.312 116.317 280.025 116.177 279.052 115.899C278.078 115.644 277.394 115.435 277 115.273L277.73 111.76C278.356 112.015 279.098 112.259 279.956 112.491C280.837 112.723 281.834 112.839 282.947 112.839Z" fill="white"/>
<defs>
<clipPath id="clip0_1405_96">
<rect width="117.102" height="117.102" fill="white"/>
</clipPath>
</defs>
</svg>
